<svg width="23" height="24" viewBox="0 0 23 24" fill="none" xmlns="http://www.w3.org/2000/svg">
<path d="M14.9642 5.06991L14.863 5.02997C10.4882 3.30419 5.49972 5.43435 3.72088 9.78779V9.78779C1.94204 14.1412 4.04644 19.0694 8.42119 20.7952L8.62371 20.8751C12.9985 22.6009 17.9869 20.4707 19.7658 16.1173V16.1173" stroke="#333333" stroke-width="2" stroke-linecap="round"/>
<path d="M10.1061 4.61225L9.96867 4.63829C5.35654 5.51235 2.35068 9.95507 3.25488 14.5614V14.5614C4.15909 19.1677 8.63096 22.1933 13.2431 21.3192L13.5179 21.2671C18.1301 20.3931 21.1359 15.9504 20.2317 11.344V11.344" stroke="#333333" stroke-width="2" stroke-linecap="round"/>
<path d="M12.0851 7.37224L15.6632 4.9896L13.2383 1.4738" stroke="#333333" stroke-width="2" stroke-linecap="round"/>
</svg>
