<svg width="24" height="24" viewBox="0 0 24 24" fill="none" xmlns="http://www.w3.org/2000/svg">
<path d="M7.70957 11.8142C6.0317 6.85706 8.6984 2.94217 11.1832 0.790571C11.8338 0.227253 12.7502 0.839237 12.7716 1.69953C12.8674 5.54848 15.433 7.83983 16.9232 8.57359C20.7691 11.166 21.3106 14.8387 20.8719 16.9991C20.111 22.184 14.5101 23.6962 11.6582 23.4802C4.97433 22.9739 3 17.6829 3 15.0547C3 12.9594 3.5434 11.4286 4.16364 10.3609C4.60463 9.60171 5.47554 10.0148 5.47213 10.8927C5.46886 11.7383 5.63192 12.4617 6.29058 13.1104C7.60681 14.4066 8.1483 13.1104 7.70957 11.8142Z" fill="url(#paint0_linear_394_3779)"/>
<defs>
<linearGradient id="paint0_linear_394_3779" x1="12" y1="-0.5" x2="12" y2="23.5" gradientUnits="userSpaceOnUse">
<stop stop-color="#FF5B27"/>
<stop offset="1" stop-color="#FF784E"/>
</linearGradient>
</defs>
</svg>
