<svg width="27" height="26" viewBox="0 0 27 26" fill="none" xmlns="http://www.w3.org/2000/svg">
<path d="M24 13C24 19.0751 19.0751 24 13 24C6.92487 24 2 19.0751 2 13C2 6.92487 6.92487 2 13 2" stroke="#333333" stroke-width="2" stroke-linecap="round"/>
<path d="M14.4405 6.79468L13.7333 6.08758C13.5051 6.31583 13.4011 6.64021 13.454 6.95863L14.4405 6.79468ZM15.1451 11.0341L14.1586 11.1981C14.2287 11.6197 14.559 11.9502 14.9807 12.0205L15.1451 11.0341ZM19.3874 11.7411L19.223 12.7275C19.5416 12.7806 19.8662 12.6766 20.0945 12.4482L19.3874 11.7411ZM25.0443 6.08428L25.7514 6.79139C26.0163 6.52651 26.1109 6.13582 25.9966 5.7791C25.8823 5.42238 25.5782 5.15946 25.2087 5.09788L25.0443 6.08428ZM20.0978 1.13712L21.0843 0.973308C21.023 0.603672 20.7601 0.299364 20.4033 0.18491C20.0465 0.0704566 19.6557 0.165065 19.3907 0.43002L20.0978 1.13712ZM20.8019 5.37725L19.8154 5.54106L19.9325 6.24614L20.6375 6.36364L20.8019 5.37725ZM13.454 6.95863L14.1586 11.1981L16.1315 10.8701L15.4269 6.63072L13.454 6.95863ZM14.9807 12.0205L19.223 12.7275L19.5518 10.7547L15.3095 10.0477L14.9807 12.0205ZM20.0945 12.4482L25.7514 6.79139L24.3372 5.37717L18.6803 11.034L20.0945 12.4482ZM19.3907 0.43002L13.7333 6.08758L15.1476 7.50177L20.805 1.84421L19.3907 0.43002ZM25.2087 5.09788L20.9663 4.39085L20.6375 6.36364L24.8799 7.07067L25.2087 5.09788ZM21.7884 5.21344L21.0843 0.973308L19.1113 1.30092L19.8154 5.54106L21.7884 5.21344Z" fill="#333333"/>
<path d="M14.9402 11.4048L12.3992 13.946" stroke="#333333" stroke-width="2" stroke-linecap="round"/>
</svg>
