<svg width="24" height="24" viewBox="0 0 24 24" fill="none" xmlns="http://www.w3.org/2000/svg">
<path d="M1.73909 11.6959C1.8892 10.7202 2.7287 10 3.71584 10H7C8.10457 10 9 10.8954 9 12V23H0L1.73909 11.6959Z" fill="#76E383"/>
<path d="M15 8C15 6.89543 15.8954 6 17 6H20.2215C21.2357 6 22.0893 6.75909 22.2078 7.76632L24 23H15V8Z" fill="#76E383"/>
<path d="M7.83464 2.81893C7.92829 1.78877 8.79202 1 9.82643 1H14.1736C15.208 1 16.0717 1.78877 16.1654 2.81893L18 23H6L7.83464 2.81893Z" fill="#1CD07E"/>
</svg>
