<svg width="26" height="24" viewBox="0 0 26 24" fill="none" xmlns="http://www.w3.org/2000/svg">
<path d="M11 15H15L16 21H10L11 15Z" fill="#76E383"/>
<mask id="path-2-inside-1_419_3149" fill="white">
<path d="M6.02731 3.51529C6.44586 3.41867 6.86349 3.67963 6.96012 4.09818L8.85971 12.3262C8.95633 12.7447 8.69537 13.1624 8.27682 13.259L7.08593 13.5339C4.39528 14.1551 1.71051 12.4775 1.08932 9.78684C0.468136 7.09619 2.14577 4.41142 4.83642 3.79023L6.02731 3.51529Z"/>
</mask>
<path d="M6.02731 3.51529C6.44586 3.41867 6.86349 3.67963 6.96012 4.09818L8.85971 12.3262C8.95633 12.7447 8.69537 13.1624 8.27682 13.259L7.08593 13.5339C4.39528 14.1551 1.71051 12.4775 1.08932 9.78684C0.468136 7.09619 2.14577 4.41142 4.83642 3.79023L6.02731 3.51529Z" stroke="#76E383" stroke-width="4" mask="url(#path-2-inside-1_419_3149)"/>
<mask id="path-3-inside-2_419_3149" fill="white">
<path d="M20.0691 3.48845C19.6523 3.38454 19.2302 3.63817 19.1263 4.05497L17.0834 12.2486C16.9795 12.6654 17.2331 13.0875 17.6499 13.1914L18.8358 13.4871C21.5152 14.1551 24.2289 12.5246 24.8969 9.84522C25.565 7.16583 23.9344 4.45219 21.255 3.78414L20.0691 3.48845Z"/>
</mask>
<path d="M20.0691 3.48845C19.6523 3.38454 19.2302 3.63817 19.1263 4.05497L17.0834 12.2486C16.9795 12.6654 17.2331 13.0875 17.6499 13.1914L18.8358 13.4871C21.5152 14.1551 24.2289 12.5246 24.8969 9.84522C25.565 7.16583 23.9344 4.45219 21.255 3.78414L20.0691 3.48845Z" stroke="#76E383" stroke-width="4" mask="url(#path-3-inside-2_419_3149)"/>
<path d="M4.32612 4.28284C4.154 3.07797 5.08892 2 6.30602 2H19.694C20.9111 2 21.846 3.07798 21.6739 4.28284L20.9812 9.13138C20.4182 13.0726 16.9812 16 13 16C9.0188 16 5.58179 13.0726 5.01877 9.13137L4.32612 4.28284Z" fill="#1CD07E"/>
<path d="M19.8298 22.3194C19.9163 22.6651 19.6548 23 19.2984 23L6.70158 23C6.34521 23 6.08373 22.6651 6.17016 22.3194C6.65786 20.3686 8.41067 19 10.4215 19L15.5785 19C17.5893 19 19.3421 20.3686 19.8298 22.3194Z" fill="#76E383"/>
</svg>
