<svg width="44" height="44" viewBox="0 0 44 44" fill="none" xmlns="http://www.w3.org/2000/svg">
<path d="M4 25C4 18.3726 9.37258 13 16 13H28C34.6274 13 40 18.3726 40 25V34C40 35.6569 38.6569 37 37 37H7C5.34315 37 4 35.6569 4 34V25Z" fill="#0DD97C"/>
<path opacity="0.6" fill-rule="evenodd" clip-rule="evenodd" d="M19 13C19 15.2091 17.2091 17 15 17C12.7909 17 11 15.2091 11 13C11 10.7909 12.7909 9 15 9C17.2091 9 19 10.7909 19 13ZM22 18.6573C20.35 20.6963 17.8273 22 15 22C10.0294 22 6 17.9706 6 13C6 8.02944 10.0294 4 15 4C17.8273 4 20.35 5.30367 22 7.34267C23.65 5.30367 26.1727 4 29 4C33.9706 4 38 8.02944 38 13C38 17.9706 33.9706 22 29 22C26.1727 22 23.65 20.6963 22 18.6573ZM33 13C33 15.2091 31.2091 17 29 17C26.7909 17 25 15.2091 25 13C25 10.7909 26.7909 9 29 9C31.2091 9 33 10.7909 33 13Z" fill="#0DD97C"/>
<rect opacity="0.6" x="19.5" y="13" width="5" height="25" fill="white"/>
</svg>
