<svg width="26" height="26" viewBox="0 0 26 26" fill="none" xmlns="http://www.w3.org/2000/svg">
<path d="M3 11.0369C3 10.0771 3.45925 9.17522 4.23548 8.61069L11.2355 3.51978C12.2874 2.75473 13.7126 2.75473 14.7645 3.51978L21.7645 8.61069C22.5407 9.17522 23 10.0771 23 11.0369V21C23 22.6569 21.6569 24 20 24H6C4.34315 24 3 22.6569 3 21V11.0369Z" stroke="#333333" stroke-width="2"/>
<path d="M12 15C12 14.4477 12.4477 14 13 14C13.5523 14 14 14.4477 14 15V19C14 19.5523 13.5523 20 13 20C12.4477 20 12 19.5523 12 19V15Z" fill="#333333"/>
</svg>
