<svg width="18" height="18" viewBox="0 0 18 18" fill="none" xmlns="http://www.w3.org/2000/svg">
<rect x="0.5" y="0.5" width="17" height="17" rx="8.5" fill="white" stroke="#DDDDDD"/>
<path d="M8.17969 10.8281V10.957H9.72656V10.8281C9.73242 10.0078 10.0254 9.62695 10.6875 9.23438C11.4551 8.77148 11.9531 8.16211 11.9531 7.19531C11.9531 5.74805 10.7988 4.89844 9.16406 4.89844C7.66406 4.89844 6.43945 5.68945 6.41016 7.33594H8.07422C8.09766 6.65039 8.60742 6.28711 9.15234 6.28125C9.7207 6.28711 10.1777 6.66797 10.1719 7.25391C10.1777 7.79297 9.78516 8.15625 9.28125 8.48438C8.57812 8.92383 8.18555 9.36914 8.17969 10.8281ZM8.00391 12.6211C7.99219 13.166 8.4375 13.6055 8.98828 13.6055C9.50977 13.6055 9.96094 13.166 9.96094 12.6211C9.96094 12.082 9.50977 11.6426 8.98828 11.6484C8.4375 11.6426 7.99219 12.082 8.00391 12.6211Z" fill="#999999"/>
</svg>
