<svg width="198" height="21" viewBox="0 0 198 21" fill="none" xmlns="http://www.w3.org/2000/svg">
<path d="M12.6425 20.5774C17.5178 19.2546 20.2961 13.856 18.8481 8.51925C17.4001 3.1825 12.2741 -0.0714453 7.3988 1.25135C2.5235 2.57415 -0.254877 7.97277 1.19312 13.3095C2.64112 18.6463 7.76717 21.9002 12.6425 20.5774Z" fill="#0DD97C"/>
<path d="M8.71482 11.5745C9.93064 12.7688 11.5475 12.7734 12.7567 11.5853" stroke="#333333" stroke-width="1.2" stroke-linecap="round"/>
<path d="M8 7.86523V9.06523" stroke="#333333" stroke-width="1.2" stroke-linecap="round"/>
<path d="M12.5 7.86523V9.06523" stroke="#333333" stroke-width="1.2" stroke-linecap="round"/>
<path d="M31.7696 2.94141V18.6084H28V2.94141H31.7696V2.94141ZM30.3643 2.94141H33.6878C35.0261 2.94141 36.1413 3.15403 37.0335 3.59047C37.9257 4.02691 38.606 4.62001 39.0633 5.39217C39.5206 6.16433 39.7548 7.0484 39.7548 8.06675C39.7548 9.06273 39.5206 9.94679 39.0633 10.719C38.606 11.4911 37.9257 12.0842 37.0335 12.5207C36.1413 12.9571 35.0261 13.1697 33.6878 13.1697H30.3643V10.2378H33.4201C33.922 10.2378 34.3569 10.1594 34.725 10.0027C35.093 9.84608 35.3718 9.61107 35.5614 9.30892C35.751 9.00677 35.8514 8.63748 35.8514 8.20104C35.8514 7.7646 35.751 7.39531 35.5614 7.09316C35.3718 6.79101 35.093 6.55601 34.725 6.38815C34.3569 6.22028 33.922 6.14195 33.4201 6.14195H30.3643V2.94141ZM35.8068 11.5135L40.6916 18.6084H36.2752L31.8811 11.5135H35.8068Z" fill="#0DD97C"/>
<path d="M46.0894 2.94141V13.1921C46.0894 13.9866 46.3013 14.6245 46.7139 15.1169C47.1266 15.6093 47.7511 15.8555 48.5875 15.8555C49.4351 15.8555 50.0708 15.6093 50.4835 15.1169C50.8961 14.6245 51.108 13.9866 51.108 13.1921V2.94141H54.8776V13.4607C54.8776 14.4455 54.7214 15.3071 54.398 16.0345C54.0746 16.7619 53.6285 17.3662 53.0597 17.8362C52.4909 18.3063 51.8218 18.6644 51.0522 18.8994C50.2827 19.1344 49.4686 19.2575 48.5875 19.2575C47.7065 19.2575 46.8924 19.1344 46.134 18.8994C45.3756 18.6644 44.7065 18.3063 44.1377 17.8362C43.5689 17.3662 43.1228 16.7619 42.7994 16.0345C42.476 15.3071 42.3198 14.4455 42.3198 13.4607V2.94141H46.0894Z" fill="#0DD97C"/>
<path d="M72.4764 2.94155V19.3919L61.6808 9.79027V18.6086H58.0674V2.1582L68.8407 11.7598V2.94155H72.4764Z" fill="#0DD97C"/>
<path d="M90.1864 2.94155V19.3919L79.3908 9.79027V18.6086H75.7773V2.1582L86.5507 11.7598V2.94155H90.1864Z" fill="#0DD97C"/>
<path d="M97.3243 2.94141V18.6084H93.4878V2.94141H97.3243V2.94141Z" fill="#0DD97C"/>
<path d="M115.034 2.94155V19.3919L104.238 9.79027V18.6086H100.625V2.1582L111.398 11.7598V2.94155H115.034Z" fill="#0DD97C"/>
<path d="M126.075 10.036H133.971C134.049 11.2894 133.916 12.4644 133.592 13.5499C133.269 14.6354 132.756 15.5978 132.075 16.4371C131.395 17.2764 130.536 17.9255 129.51 18.3955C128.484 18.8655 127.313 19.1005 125.986 19.1005C124.737 19.1005 123.588 18.8991 122.551 18.5074C121.514 18.1157 120.611 17.545 119.852 16.8064C119.094 16.0678 118.503 15.1837 118.079 14.1654C117.655 13.147 117.443 12.0168 117.443 10.7746C117.443 9.53244 117.655 8.41337 118.09 7.4062C118.525 6.39904 119.127 5.53736 119.919 4.82115C120.711 4.10494 121.626 3.5566 122.685 3.16492C123.745 2.77325 124.882 2.58301 126.12 2.58301C127.224 2.58301 128.206 2.73968 129.087 3.05302C129.968 3.36636 130.737 3.8028 131.417 4.36233C132.098 4.92187 132.678 5.57093 133.168 6.29832L129.823 8.04408C129.466 7.4174 128.986 6.90262 128.384 6.48857C127.782 6.07451 127.023 5.87308 126.12 5.87308C125.239 5.87308 124.447 6.06332 123.733 6.45499C123.02 6.84667 122.451 7.39501 122.027 8.12241C121.603 8.84981 121.391 9.73387 121.391 10.7746C121.391 11.8042 121.592 12.6994 122.005 13.4492C122.417 14.199 122.975 14.7809 123.678 15.1949C124.38 15.609 125.194 15.8104 126.12 15.8104C126.689 15.8104 127.191 15.7433 127.648 15.5978C128.105 15.4523 128.496 15.2509 128.83 14.9935C129.165 14.7361 129.443 14.4228 129.678 14.0759C129.912 13.729 130.09 13.3485 130.224 12.9456H126.075V10.036Z" fill="#0DD97C"/>
<path d="M144.691 2.51562V18.1826H140.921V2.51562H144.691V2.51562ZM141.97 8.22289H153.769V11.6249H141.97V8.22289ZM155.174 2.51562V18.1826H151.405V2.51562H155.174V2.51562Z" fill="#0DD97C"/>
<path d="M162.29 2.51562V18.1826H158.453V2.51562H162.29V2.51562Z" fill="#0DD97C"/>
<path d="M173.33 9.61122H181.226C181.304 10.8646 181.171 12.0396 180.847 13.1251C180.524 14.2106 180.011 15.173 179.33 16.0123C178.65 16.8516 177.791 17.5007 176.765 17.9707C175.739 18.4407 174.568 18.6757 173.241 18.6757C171.992 18.6757 170.843 18.4743 169.806 18.0826C168.769 17.6909 167.866 17.1202 167.107 16.3816C166.349 15.643 165.758 14.7589 165.334 13.7406C164.91 12.7222 164.698 11.592 164.698 10.3498C164.698 9.10764 164.91 7.98857 165.345 6.9814C165.78 5.97424 166.382 5.11255 167.174 4.39635C167.966 3.68014 168.88 3.1318 169.94 2.74012C170.999 2.34845 172.137 2.1582 173.375 2.1582C174.479 2.1582 175.46 2.31487 176.341 2.62821C177.223 2.94155 177.992 3.37799 178.672 3.93753C179.353 4.49706 179.933 5.14613 180.423 5.87352L177.078 7.61927C176.721 6.99259 176.241 6.47782 175.639 6.06376C175.037 5.64971 174.278 5.44827 173.375 5.44827C172.494 5.44827 171.702 5.63852 170.988 6.03019C170.275 6.42187 169.706 6.97021 169.282 7.69761C168.858 8.425 168.646 9.30907 168.646 10.3498C168.646 11.3794 168.847 12.2746 169.26 13.0244C169.672 13.7742 170.23 14.3561 170.933 14.7701C171.635 15.1842 172.449 15.3856 173.375 15.3856C173.944 15.3856 174.446 15.3185 174.903 15.173C175.36 15.0275 175.75 14.8261 176.085 14.5687C176.42 14.3113 176.698 13.998 176.933 13.6511C177.167 13.3042 177.345 12.9237 177.479 12.5208H173.33V9.61122V9.61122Z" fill="#0DD97C"/>
<path d="M187.517 2.51562V18.1826H183.747V2.51562H187.517V2.51562ZM184.795 8.22289H196.595V11.6249H184.795V8.22289ZM198 2.51562V18.1826H194.23V2.51562H198V2.51562Z" fill="#0DD97C"/>
</svg>
