<svg width="128" height="13" viewBox="0 0 128 13" fill="none" xmlns="http://www.w3.org/2000/svg">
<path d="M2.83826 0.590332V12.4085H0V0.590332H2.83826ZM1.78021 0.590332H4.28258C5.29024 0.590332 6.12997 0.750722 6.80174 1.07994C7.47352 1.40916 7.98575 1.85657 8.33003 2.43903C8.67432 3.0215 8.85066 3.68838 8.85066 4.45657C8.85066 5.20786 8.67432 5.87475 8.33003 6.45722C7.98575 7.03968 7.47352 7.48709 6.80174 7.81631C6.12997 8.14553 5.29024 8.30592 4.28258 8.30592H1.78021V6.09423H4.08105C4.45892 6.09423 4.78641 6.03514 5.06352 5.91696C5.34063 5.79877 5.55056 5.6215 5.69331 5.39358C5.83606 5.16566 5.91164 4.88709 5.91164 4.55786C5.91164 4.22864 5.83606 3.95007 5.69331 3.72215C5.55056 3.49423 5.34063 3.31696 5.06352 3.19033C4.78641 3.06371 4.45892 3.00462 4.08105 3.00462H1.78021V0.590332ZM5.87805 7.05657L9.55603 12.4085H6.23073L2.92223 7.05657H5.87805Z" fill="#0DD97C"/>
<path d="M13.6195 0.590332V8.3228C13.6195 8.92215 13.7791 9.40332 14.0898 9.77475C14.4004 10.1462 14.8707 10.3319 15.5005 10.3319C16.1387 10.3319 16.6173 10.1462 16.928 9.77475C17.2387 9.40332 17.3983 8.92215 17.3983 8.3228V0.590332H20.2365V8.5254C20.2365 9.26825 20.1189 9.91825 19.8754 10.467C19.6319 11.0157 19.296 11.4715 18.8678 11.826C18.4395 12.1806 17.9357 12.4507 17.3563 12.628C16.7769 12.8053 16.1639 12.8981 15.5005 12.8981C14.8371 12.8981 14.2241 12.8053 13.6531 12.628C13.0821 12.4507 12.5783 12.1806 12.15 11.826C11.7217 11.4715 11.3858 11.0157 11.1423 10.467C10.8988 9.91825 10.7812 9.26825 10.7812 8.5254V0.590332H13.6195Z" fill="#0DD97C"/>
<path d="M33.4888 0.590909V13L25.3603 5.75714V12.4091H22.6396V0L30.7514 7.24286V0.590909H33.4888Z" fill="#0DD97C"/>
<path d="M46.8219 0.590909V13L38.6934 5.75714V12.4091H35.9727V0L44.0844 7.24286V0.590909H46.8219Z" fill="#0DD97C"/>
<path d="M52.1963 0.590332V12.4085H49.3076V0.590332H52.1963Z" fill="#0DD97C"/>
<path d="M65.5308 0.590909V13L57.4023 5.75714V12.4091H54.6816V0L62.7933 7.24286V0.590909H65.5308Z" fill="#0DD97C"/>
<path d="M73.8442 5.9419H79.7894C79.8482 6.88736 79.7474 7.77372 79.5039 8.59255C79.2604 9.41138 78.8741 10.1374 78.3619 10.7705C77.8496 11.4036 77.2031 11.8932 76.4305 12.2477C75.658 12.6023 74.7763 12.7796 73.777 12.7796C72.8365 12.7796 71.9716 12.6276 71.1907 12.3322C70.4097 12.0367 69.7295 11.6062 69.1585 11.049C68.5875 10.4919 68.1425 9.82502 67.8234 9.05684C67.5043 8.28865 67.3447 7.43606 67.3447 6.49904C67.3447 5.56203 67.5043 4.71788 67.8318 3.95814C68.1593 3.1984 68.6127 2.5484 69.2089 2.00814C69.8051 1.46788 70.4937 1.05424 71.2914 0.758785C72.0892 0.463331 72.9457 0.319824 73.8778 0.319824C74.7091 0.319824 75.448 0.438006 76.1114 0.67437C76.7748 0.910733 77.3542 1.23995 77.8664 1.66203C78.3787 2.08411 78.8153 2.57372 79.1848 3.12242L76.6656 4.4393C76.3969 3.96658 76.0358 3.57827 75.5824 3.26593C75.1289 2.95359 74.5579 2.80164 73.8778 2.80164C73.2144 2.80164 72.6182 2.94515 72.0808 3.2406C71.5433 3.53606 71.1151 3.94969 70.796 4.4984C70.4769 5.0471 70.3173 5.71398 70.3173 6.49904C70.3173 7.27567 70.4685 7.95099 70.7792 8.51658C71.0899 9.08216 71.5097 9.52112 72.0388 9.83346C72.5678 10.1458 73.1808 10.2977 73.8778 10.2977C74.306 10.2977 74.6839 10.2471 75.0282 10.1374C75.3725 10.0276 75.6664 9.87567 75.9183 9.68151C76.1702 9.48736 76.3801 9.25099 76.5565 8.9893C76.7328 8.72762 76.8672 8.4406 76.9679 8.13671H73.8442V5.9419Z" fill="#0DD97C"/>
<path d="M87.8627 0.269531V12.0877H85.0244V0.269531H87.8627ZM85.8138 4.57472H94.698V7.14096H85.8138V4.57472ZM95.7561 0.269531V12.0877H92.9178V0.269531H95.7561Z" fill="#0DD97C"/>
<path d="M101.111 0.269531V12.0877H98.2227V0.269531H101.111Z" fill="#0DD97C"/>
<path d="M109.425 5.62208H115.37C115.429 6.56753 115.328 7.4539 115.085 8.27273C114.841 9.09156 114.455 9.81753 113.943 10.4506C113.431 11.0838 112.784 11.5734 112.012 11.9279C111.239 12.2825 110.357 12.4597 109.358 12.4597C108.418 12.4597 107.553 12.3078 106.772 12.0123C105.991 11.7169 105.311 11.2864 104.74 10.7292C104.169 10.1721 103.724 9.5052 103.404 8.73701C103.085 7.96883 102.926 7.11624 102.926 6.17922C102.926 5.24221 103.085 4.39805 103.413 3.63831C103.74 2.87857 104.194 2.22857 104.79 1.68831C105.386 1.14805 106.075 0.734416 106.872 0.438961C107.67 0.143507 108.527 0 109.459 0C110.29 0 111.029 0.118182 111.692 0.354546C112.356 0.590909 112.935 0.92013 113.447 1.34221C113.96 1.76429 114.396 2.2539 114.766 2.8026L112.247 4.11948C111.978 3.64675 111.617 3.25844 111.163 2.94611C110.71 2.63377 110.139 2.48182 109.459 2.48182C108.795 2.48182 108.199 2.62533 107.662 2.92078C107.124 3.21623 106.696 3.62987 106.377 4.17857C106.058 4.72727 105.898 5.39416 105.898 6.17922C105.898 6.95585 106.05 7.63117 106.36 8.19675C106.671 8.76234 107.091 9.2013 107.62 9.51364C108.149 9.82598 108.762 9.97792 109.459 9.97792C109.887 9.97792 110.265 9.92727 110.609 9.81753C110.954 9.70779 111.247 9.55585 111.499 9.36169C111.751 9.16753 111.961 8.93117 112.138 8.66948C112.314 8.40779 112.448 8.12078 112.549 7.81688H109.425V5.62208Z" fill="#0DD97C"/>
<path d="M120.107 0.269531V12.0877H117.269V0.269531H120.107ZM118.058 4.57472H126.942V7.14096H118.058V4.57472ZM128 0.269531V12.0877H125.162V0.269531H128Z" fill="#0DD97C"/>
</svg>
