<svg width="375" height="289" viewBox="0 0 375 289" fill="none" xmlns="http://www.w3.org/2000/svg">
<path d="M271 69L296 76.3846V93L271 85.6154V69Z" fill="#81E784"/>
<path opacity="0.5" d="M101 159L120 164.231V176L101 170.769V159Z" fill="#E9E9E9"/>
<path d="M36.9272 124.454L27.3186 125.856L14.6614 119.533L24.2701 118.131L36.9272 124.454Z" fill="#E9E9E9"/>
<path d="M35.877 138.151L31.5429 125.062L37.2584 105.803L41.5924 118.892L35.877 138.151Z" fill="#E9E9E9"/>
<path d="M76.3584 105.572L80.8067 124.712L70.5016 148.724L66.0534 129.584L76.3584 105.572Z" fill="#81E784"/>
<path opacity="0.5" d="M275.329 163.512L268.98 169.886L257.158 171.716L263.507 165.342L275.329 163.512Z" fill="#81E784"/>
<ellipse cx="46.2878" cy="92.0021" rx="5.23902" ry="10.5498" transform="rotate(78.332 46.2878 92.0021)" fill="#E9E9E9"/>
<ellipse cx="200.187" cy="102.471" rx="3.80157" ry="11.2408" transform="rotate(-23.7247 200.187 102.471)" fill="#E9E9E9"/>
<path d="M285.757 60.5278L301.376 49.5866L310.531 57.0119L294.912 67.9531L285.757 60.5278Z" fill="#81E784"/>
<path d="M246.234 71.9683L236.626 73.3709L223.969 67.0479L233.577 65.6453L246.234 71.9683Z" fill="#E9E9E9"/>
<ellipse opacity="0.5" rx="5.23902" ry="7.20365" transform="matrix(-0.772337 -0.635213 -0.635213 0.772337 311.084 144.654)" fill="#E9E9E9"/>
<path d="M142.692 74.4263L134.356 82.7939L118.835 85.1962L127.171 76.8286L142.692 74.4263Z" fill="#81E784"/>
<path d="M366.128 99.437L359.889 126.444L338.872 143.563L341.069 119.847L366.128 99.437Z" fill="#81E784"/>
<path d="M113.125 75.8242L104.627 87.9196L121.089 100.015L129.586 87.9192L113.125 75.8242Z" fill="#81E784"/>
<path d="M251 115L262.429 119.5L271 133L259.571 128.5L251 115Z" fill="#81E784"/>
<path d="M225.934 50.3579L216.231 60.4025L209.607 57.2944L219.309 47.2498L225.934 50.3579Z" fill="#E9E9E9"/>
<path d="M347.926 71.1021L338.223 81.1466L331.599 78.0385L341.301 67.994L347.926 71.1021Z" fill="#E9E9E9"/>
<path d="M54.1194 69L78 62.3746L67.8806 49L44 55.6254L54.1194 69Z" fill="#81E784"/>
</svg>
