<svg width="56" height="54" viewBox="0 0 56 54" fill="none" xmlns="http://www.w3.org/2000/svg">
<circle cx="27" cy="27" r="27" fill="#F5F5F8"/>
<circle cx="27" cy="19" r="5" fill="#DDDDDD"/>
<path d="M15 29.7368C15 28.2253 16.2253 27 17.7368 27H36.2632C37.7747 27 39 28.2253 39 29.7368C39 35.405 34.405 40 28.7368 40H25.2632C19.595 40 15 35.405 15 29.7368Z" fill="#DDDDDD"/>
<circle cx="47" cy="45" r="8.5" fill="white" stroke="#DDDDDD"/>
<path opacity="0.4" d="M48.6983 40.6884C49.0383 40.2532 49.6668 40.176 50.102 40.5161L51.2873 41.4421C51.7225 41.7822 51.7997 42.4106 51.4597 42.8458L47.1867 48.3149C47.0911 48.4373 46.9684 48.5357 46.8282 48.6024L44.4064 49.7541C44.0343 49.9311 43.6199 49.6073 43.7015 49.2035L44.2332 46.5749C44.264 46.4228 44.3298 46.2799 44.4254 46.1575L48.6983 40.6884Z" fill="#888888"/>
</svg>
