<svg width="110" height="110" viewBox="0 0 110 110" fill="none" xmlns="http://www.w3.org/2000/svg">
<path d="M28.5 60C44.2401 60 57 46.5685 57 30C57 13.4315 44.2401 0 28.5 0C12.7599 0 3.86321e-07 13.4315 8.62872e-07 30C1.33942e-06 46.5685 12.7599 60 28.5 60Z" fill="#0DD97C"/>
<path d="M24.6642 18.5842C26.2094 20.1067 30.2086 22.2141 33.8448 18.464" stroke="#333333" stroke-width="2" stroke-linecap="round"/>
<path d="M21 11V13.6" stroke="#333333" stroke-width="2" stroke-linecap="round"/>
<path d="M33 11V13.6" stroke="#333333" stroke-width="2" stroke-linecap="round"/>
<circle cx="63" cy="63" r="47" fill="#FFDBA7"/>
<circle cx="63" cy="63" r="36.5" fill="#FFAD32"/>
<path d="M48.4132 24.7819C51.9551 25.5255 55.5987 22.449 56.5515 17.9104C57.5043 13.3718 55.4053 9.08985 51.8634 8.3463C48.3215 7.60276 44.6778 10.6792 43.7251 15.2178C42.7723 19.7564 44.8712 24.0384 48.4132 24.7819Z" fill="#0DD97C"/>
<path d="M31.5676 38.8736C33.606 35.8832 32.1521 31.3415 28.3201 28.7295C24.4881 26.1175 19.7293 26.4243 17.6909 29.4148C15.6525 32.4053 17.1064 36.947 20.9384 39.559C24.7703 42.171 29.5292 41.8641 31.5676 38.8736Z" fill="#0DD97C"/>
<path d="M56 78V65.3284M56 65.3284V48.6016C61.3765 47.5878 71.6407 47.0808 73.5957 53.6703C74.5733 56.7113 74.4529 64.5014 65.2866 65.3284C56.2933 66.1398 56 65.8353 56 65.3284Z" stroke="white" stroke-width="6" stroke-linecap="round"/>
</svg>
