<svg width="52" height="52" viewBox="0 0 52 52" fill="none" xmlns="http://www.w3.org/2000/svg">
<path d="M14.3145 36.6658C14.3145 36.6658 31.0074 38.3602 38.4301 47.2953C38.7646 47.8375 39.5069 47.978 40.0296 47.5965L48.8248 41.2879C49.173 41.0381 49.32 40.5897 49.0766 40.237C48.6159 39.5694 47.5873 38.6133 45.4746 38.6133C45.4746 38.6133 42.6119 30.4289 35.6074 28.2202L14.3145 36.6658Z" fill="#0DD97C"/>
<path d="M19.6285 14.5947C19.6285 14.5947 14.0771 31.7523 3.38216 36.762C2.76534 36.9628 2.46216 37.6254 2.72353 38.1977L7.46091 48.2341C7.66968 48.6764 8.16707 48.8856 8.56941 48.6075C9.25513 48.1336 10.2812 47.1326 11.0686 45.1057C11.0686 45.1057 21.8187 43.7395 26.6487 36.762L19.6285 14.5947Z" fill="#0DD97C"/>
<path d="M29.148 38.7141C37.9714 36.3201 42.9932 26.5253 40.3645 16.8368C37.7358 7.14839 28.452 1.23509 19.6285 3.62911C10.8051 6.02313 5.78335 15.8179 8.41208 25.5064C11.0408 35.1948 20.3246 41.1081 29.148 38.7141Z" fill="#0DD97C"/>
<path d="M24.0713 20.6017C25.1298 21.3701 27.7855 22.4359 29.9398 20.5521" stroke="#333333" stroke-width="1.5" stroke-linecap="round"/>
<path d="M23.0356 14.5947V16.3926" stroke="#333333" stroke-width="1.5" stroke-linecap="round"/>
<path d="M29.8945 14.5947V16.3926" stroke="#333333" stroke-width="1.5" stroke-linecap="round"/>
<path d="M9 4H3" stroke="#0DD97C" stroke-width="2" stroke-linecap="round"/>
<path d="M12 9H7" stroke="#0DD97C" stroke-width="2" stroke-linecap="round"/>
</svg>
