<svg width="53" height="52" viewBox="0 0 53 52" fill="none" xmlns="http://www.w3.org/2000/svg">
<path d="M10.5552 36.3563C10.5552 36.3563 24.5614 37.778 30.7895 45.2751C31.0702 45.73 31.693 45.8479 32.1316 45.5278L39.4174 40.3018C39.7657 40.052 39.913 39.6016 39.6551 39.2593C39.2393 38.7077 38.3765 37.9904 36.7002 37.9904C36.7002 37.9904 34.2983 31.1232 28.4211 29.27L10.5552 36.3563Z" fill="#FF8FBE"/>
<path d="M15.0141 17.8374C15.0141 17.8374 10.3563 32.2335 1.38259 36.437C0.865046 36.6054 0.61066 37.1614 0.829958 37.6416L4.74665 45.9393C4.95541 46.3816 5.45405 46.5887 5.84603 46.2962C6.41711 45.87 7.21256 45.0322 7.83192 43.4378C7.83192 43.4378 16.8518 42.2914 20.9044 36.437L15.0141 17.8374Z" fill="#FF8FBE"/>
<path d="M23.1495 38.622C30.8278 36.5387 35.1978 28.0152 32.9102 19.5842C30.6227 11.1532 22.5438 6.00733 14.8656 8.09063C7.18733 10.1739 2.81732 18.6975 5.10487 27.1285C7.39242 35.5595 15.4713 40.7053 23.1495 38.622Z" fill="#FF8FBE"/>
<path d="M18.7416 22.878C19.6298 23.5228 21.8581 24.4171 23.6656 22.8364" stroke="#333333" stroke-width="1.5" stroke-linecap="round"/>
<path d="M23.6279 17.8374V19.3459" stroke="#333333" stroke-width="1.5" stroke-linecap="round"/>
<path d="M20.7314 37.3641C20.7314 37.3641 36.081 38.9221 42.9064 47.1382C43.214 47.6367 43.8966 47.766 44.3772 47.4152L52.4177 41.6479C52.766 41.3981 52.9132 40.9489 52.6631 40.6009C52.2242 39.9902 51.2777 39.1548 49.384 39.1548C49.384 39.1548 46.7517 31.6291 40.3108 29.5981L20.7314 37.3641Z" fill="#0DD97C"/>
<path d="M25.6179 17.0688C25.6179 17.0688 20.5133 32.8457 10.679 37.4523C10.1118 37.6369 9.83304 38.2462 10.0734 38.7724L14.4004 47.9395C14.6092 48.3818 15.1074 48.5899 15.505 48.305C16.1344 47.8541 17.0441 46.9338 17.7469 45.1245C17.7469 45.1245 27.6319 43.8683 32.0732 37.4523L25.6179 17.0688Z" fill="#0DD97C"/>
<path d="M35.3097 39.2473C43.423 37.046 48.0407 28.0394 45.6235 19.1306C43.2063 10.2218 34.6696 4.78438 26.5563 6.98575C18.4429 9.18712 13.8252 18.1937 16.2424 27.1025C18.6596 36.0113 27.1963 41.4487 35.3097 39.2473Z" fill="#0DD97C"/>
<path d="M29.8778 22.5934C30.8512 23.2999 33.2932 24.28 35.2741 22.5478" stroke="#333333" stroke-width="1.5" stroke-linecap="round"/>
<path d="M28.7002 17.0693V18.7225" stroke="#333333" stroke-width="1.5" stroke-linecap="round"/>
<path d="M35.2998 17.0693V18.7225" stroke="#333333" stroke-width="1.5" stroke-linecap="round"/>
<path d="M8 7H2" stroke="#FF8FBE" stroke-width="2" stroke-linecap="round"/>
<path d="M10 12H5" stroke="#FF8FBE" stroke-width="2" stroke-linecap="round"/>
</svg>
