<svg width="38" height="38" viewBox="0 0 38 38" fill="none" xmlns="http://www.w3.org/2000/svg">
<rect width="38" height="38" rx="12" fill="#00BF68" fill-opacity="0.12"/>
<mask id="mask0_880_1553" style="mask-type:alpha" maskUnits="userSpaceOnUse" x="0" y="0" width="38" height="38">
<rect width="38" height="38" rx="12" fill="white"/>
</mask>
<g mask="url(#mask0_880_1553)">
<rect x="5.23828" y="27.7412" width="17.2405" height="4.10487" transform="rotate(-26.4935 5.23828 27.7412)" fill="#0BC872"/>
<path d="M6.38916 30.0288L10.0659 28.2035C11.074 30.2341 10.245 32.6975 8.21444 33.7055L6.38916 30.0288Z" fill="#0BC872"/>
<path d="M29.8454 13.4435C31.6057 20.0129 28.5141 26.6593 21.9446 28.4195C15.3752 30.1798 9.42962 26.175 7.66934 19.6055C5.90907 13.0361 9.00068 6.38979 15.5701 4.62952C22.1395 2.86924 28.0851 6.87408 29.8454 13.4435Z" fill="#0DD97C"/>
<path d="M18.0884 16.085C18.3162 16.7931 19.1198 17.3164 20.0762 17.3164C21.0325 17.3164 21.8361 16.7931 22.0639 16.085" stroke="#333333" stroke-width="1.2" stroke-linecap="round" stroke-linejoin="round"/>
<path d="M17.1157 12.6484V13.6747" stroke="#333333" stroke-width="1.2" stroke-linecap="round"/>
<path d="M22.1279 12.6484V13.6747" stroke="#333333" stroke-width="1.2" stroke-linecap="round"/>
<rect x="17.8481" y="20.478" width="17.2405" height="4.10487" transform="rotate(31.4457 17.8481 20.478)" fill="#0DD97C"/>
<path d="M31.4844 31.2231L27.9824 29.0817C29.1651 27.1476 31.6917 26.5384 33.6258 27.7211L31.4844 31.2231Z" fill="#0DD97C"/>
</g>
</svg>
