<svg width="38" height="38" viewBox="0 0 38 38" fill="none" xmlns="http://www.w3.org/2000/svg">
<rect width="38" height="38" rx="12" fill="#00BF68" fill-opacity="0.12"/>
<mask id="mask0_569_837" style="mask-type:alpha" maskUnits="userSpaceOnUse" x="0" y="0" width="38" height="38">
<rect width="38" height="38" rx="12" fill="white"/>
</mask>
<g mask="url(#mask0_569_837)">
<path d="M10.6167 30.7283C10.6167 30.7283 24.1181 32.0987 30.1216 39.3256C30.3922 39.7641 30.9926 39.8777 31.4153 39.5692L38.4175 34.5466C38.7658 34.2968 38.9132 33.846 38.652 33.5062C38.2454 32.9773 37.4144 32.3035 35.8193 32.3035C35.8193 32.3035 33.5039 25.6839 27.8386 23.8975L10.6167 30.7283Z" fill="#0DD97C"/>
<path d="M14.915 12.8765C14.915 12.8765 10.425 26.7537 1.77486 30.8056C1.27597 30.968 1.03076 31.5039 1.24215 31.9667L5.00461 39.9377C5.21338 40.38 5.7125 40.5865 6.10207 40.2908C6.65064 39.8744 7.40354 39.0681 7.99171 37.554C7.99171 37.554 16.6865 36.449 20.593 30.8056L14.915 12.8765Z" fill="#0DD97C"/>
<path d="M22.6143 32.3842C29.7507 30.4479 33.8124 22.5258 31.6862 14.6897C29.5601 6.85362 22.0513 2.07089 14.9148 4.0072C7.7784 5.9435 3.71674 13.8656 5.84288 21.7017C7.96902 29.5378 15.4778 34.3205 22.6143 32.3842Z" fill="#0DD97C"/>
<path d="M18.3764 17.7356C19.2326 18.3571 21.3806 19.2192 23.123 17.6955" stroke="#333333" stroke-width="1.5" stroke-linecap="round"/>
<path d="M17.1167 12.8765V14.3306" stroke="#333333" stroke-width="1.5" stroke-linecap="round"/>
<path d="M23.2183 12.8765V14.3306" stroke="#333333" stroke-width="1.5" stroke-linecap="round"/>
</g>
</svg>
