<svg width="53" height="52" viewBox="0 0 53 52" fill="none" xmlns="http://www.w3.org/2000/svg">
<rect width="25.8638" height="6.0998" transform="matrix(0.896258 -0.441235 0.450997 0.893686 0.177246 37.7124)" fill="#F87DB0"/>
<path d="M1.90625 41.1074L7.42985 38.399C8.9443 41.4121 7.67008 45.0814 4.6484 46.5631L1.90625 41.1074Z" fill="#F87DB0"/>
<path d="M37.145 16.4979C39.7895 26.2459 35.1449 36.1079 25.2756 38.7198C15.4062 41.3318 6.47406 35.3893 3.82958 25.6414C1.18509 15.8934 5.82966 6.03138 15.699 3.41943C25.5684 0.807473 34.5005 6.74998 37.145 16.4979Z" fill="#FF8FBE"/>
<path d="M19.4814 20.4604C19.8237 21.5113 21.031 22.2877 22.4677 22.2877C23.9045 22.2877 25.1117 21.5113 25.454 20.4604" stroke="#333333" stroke-width="2" stroke-linecap="round" stroke-linejoin="round"/>
<path d="M18.0205 15.5874V17.1101" stroke="#333333" stroke-width="2" stroke-linecap="round"/>
<path d="M25.5508 15.5874V17.1101" stroke="#333333" stroke-width="2" stroke-linecap="round"/>
<rect width="25.8532" height="6.10235" transform="matrix(0.854699 0.516216 -0.527201 0.851541 19.1201 26.936)" fill="#FF8FBE"/>
<path d="M39.6084 42.8794L34.3473 39.7018C36.1241 36.8319 39.945 35.9432 42.8256 37.683L39.6084 42.8794Z" fill="#FF8FBE"/>
<rect width="25.8638" height="6.0998" transform="matrix(0.896258 -0.441235 0.450997 0.893686 9.37793 37.7124)" fill="#0BC872"/>
<path d="M11.1069 41.1074L16.6305 38.399C18.145 41.4121 16.8708 45.0814 13.8491 46.5631L11.1069 41.1074Z" fill="#0BC872"/>
<path d="M46.3452 16.4979C48.9897 26.2459 44.3451 36.1079 34.4757 38.7198C24.6064 41.3318 15.6743 35.3893 13.0298 25.6414C10.3853 15.8934 15.0299 6.03138 24.8992 3.41943C34.7686 0.807473 43.7007 6.74998 46.3452 16.4979Z" fill="#0DD97C"/>
<path d="M28.6816 20.4604C29.0239 21.5113 30.2312 22.2877 31.6679 22.2877C33.1047 22.2877 34.3119 21.5113 34.6542 20.4604" stroke="#333333" stroke-width="2" stroke-linecap="round" stroke-linejoin="round"/>
<path d="M27.2207 15.5874V17.1101" stroke="#333333" stroke-width="2" stroke-linecap="round"/>
<path d="M34.751 15.5874V17.1101" stroke="#333333" stroke-width="2" stroke-linecap="round"/>
<rect width="25.8532" height="6.10235" transform="matrix(0.854699 0.516216 -0.527201 0.851541 28.3203 26.936)" fill="#0DD97C"/>
<path d="M48.8086 42.8794L43.5475 39.7018C45.3243 36.8319 49.1452 35.9432 52.0258 37.683L48.8086 42.8794Z" fill="#0DD97C"/>
<path d="M7 3H1" stroke="#FF8FBE" stroke-width="2" stroke-linecap="round"/>
<path d="M9 8H4" stroke="#FF8FBE" stroke-width="2" stroke-linecap="round"/>
</svg>
