<svg width="28" height="26" viewBox="0 0 28 26" fill="none" xmlns="http://www.w3.org/2000/svg">
<path d="M1.99414 11.618C1.60158 9.75339 3.02427 8 4.92979 8H13.5H23.0702C24.9757 8 26.3984 9.75339 26.0059 11.618L23.6901 22.618C23.3978 24.0063 22.1731 25 20.7544 25H7.24558C5.82691 25 4.60219 24.0063 4.30993 22.618L1.99414 11.618Z" stroke="#333333" stroke-width="2"/>
<path d="M17.5 14.366C17.7761 13.8877 18.3877 13.7239 18.866 14C19.3443 14.2761 19.5082 14.8877 19.2321 15.366L17.2321 18.8301C16.9559 19.3084 16.3443 19.4723 15.866 19.1962C15.3877 18.92 15.2239 18.3084 15.5 17.8301L17.5 14.366Z" fill="#333333"/>
<path d="M10.5 14.366C10.7761 13.8877 11.3877 13.7239 11.866 14C12.3443 14.2761 12.5082 14.8877 12.2321 15.366L10.2321 18.8301C9.95591 19.3084 9.34432 19.4723 8.86603 19.1962C8.38773 18.92 8.22386 18.3084 8.5 17.8301L10.5 14.366Z" fill="#333333"/>
<path d="M8 7C8 3.68629 10.6863 1 14 1C17.3137 1 20 3.68629 20 7V8H8V7Z" stroke="#333333" stroke-width="2"/>
</svg>
