<svg width="110" height="110" viewBox="0 0 110 110" fill="none" xmlns="http://www.w3.org/2000/svg">
<path d="M54 84C73.8823 84 90 66.9868 90 46C90 25.0132 73.8823 8 54 8C34.1177 8 18 25.0132 18 46C18 66.9868 34.1178 84 54 84Z" fill="#0DD97C"/>
<path d="M39 79.5188C39 79.5188 69.4434 82.6323 82.9804 99.0508C83.5906 100.047 84.9443 100.305 85.8976 99.6042L102.422 87.6617C102.768 87.4118 102.913 86.9692 102.711 86.5941C102.08 85.427 100.265 83.0974 95.8277 83.0974C95.8277 83.0974 90.6069 68.0585 77.8325 64L39 79.5188Z" fill="#0DD97C"/>
<path d="M42.8477 38C42.8477 38 32.4473 69.9155 12.4103 79.2343C11.2547 79.6078 10.6867 80.8404 11.1764 81.9048L20.3675 101.238C20.5767 101.678 21.0711 101.891 21.4987 101.657C22.7008 101 25.068 99.2093 26.8108 94.7547C26.8108 94.7547 46.951 92.2134 56 79.2343L42.8477 38Z" fill="#0DD97C"/>
<path d="M50.6714 40.065C52.6261 41.9911 57.6854 44.6571 62.2854 39.913" stroke="#333333" stroke-width="2.5" stroke-linecap="round"/>
<path d="M47.1807 29.3262V32.6153" stroke="#333333" stroke-width="2.5" stroke-linecap="round"/>
<path d="M62.3618 29.3262V32.6153" stroke="#333333" stroke-width="2.5" stroke-linecap="round"/>
<path d="M21 15H5" stroke="#0DD97C" stroke-width="2.5" stroke-linecap="round"/>
<path d="M26 23H18" stroke="#0DD97C" stroke-width="2.5" stroke-linecap="round"/>
<path d="M21 9H13" stroke="#0DD97C" stroke-width="2.5" stroke-linecap="round"/>
</svg>
